<?xml version="1.0" encoding="utf-8"?>
<!-- Generator: Adobe Illustrator 27.1.1, SVG Export Plug-In . SVG Version: 6.00 Build 0)  -->
<svg version="1.1" id="Layer_1" xmlns="http://www.w3.org/2000/svg" xmlns:xlink="http://www.w3.org/1999/xlink" x="0px" y="0px"
	 viewBox="0 0 500 500" style="enable-background:new 0 0 500 500;" xml:space="preserve">
<style type="text/css">
	.st0{fill:#1A232C;}
	.st1{fill-rule:evenodd;clip-rule:evenodd;fill:#FFFFFF;}
</style>
<circle class="st0" cx="250" cy="250" r="248.8"/>
<path class="st1" d="M375.9,231.1l15.1-50.7c-21.6-35.3-80.4-82.3-122-82.3c-22.1-66.2-16-66.2-38.1,0c-42.1,0-100,46.2-122,82.3
	l0,0l15.1,50.6c-11,1.8-9.3,139.5-14.4,172.6l102.3,47.9c-4.4-52.5-8.7-105-13.1-157.6c-32.2-26.9-42.2-47.8-40.3-59.8
	c0-0.1,0-0.2,0-0.4c-0.4-10.1,4.8-21.6,11.9-28.6c0.6-0.6,1.2-1.1,1.8-1.7c1.4-1.9,2.9-3.7,4.4-5.4c4.6-5.2,10.6-9.7,16.5-13.2
	c13.2-7.8,27.3-11.1,42.3-12.7c14.6-1.6,30.2-0.1,44.3,3.7c6.6,1.7,13.4,4,19.6,7.2c4.5,1.3,8.6,3.4,12.3,6.1
	c6.2,3.5,11.4,8.6,15.1,14.7c0.3,0.4,0.6,0.8,0.9,1.3c0.4,0.5,0.9,1,1.3,1.5c6.5,6.7,10.9,15.6,12,25.3c1.3,4.2,0.9,9.8-1.8,16.6
	c-2,6.9-5.8,13.6-10.5,18.2c-0.6,0.6-1.2,1.1-1.8,1.7c-6.2,7.7-14.6,16.2-25.7,25.5l-13.1,157.6l102.3-47.9
	C384.9,368.3,385.8,232.7,375.9,231.1L375.9,231.1z"/>
</svg>
